<svg xmlns="http://www.w3.org/2000/svg" width="384.113" height="91.232" viewBox="0 0 384.113 91.232">
  <g id="Finder" transform="translate(0.023)">
    <path id="Path_1" data-name="Path 1" d="M83.821,117.591l2.017,2.112A7.949,7.949,0,0,0,80.7,124.84l-2.017-2.017A10.617,10.617,0,0,0,80.8,135.064a11,11,0,0,0,12.289,2.112,10.834,10.834,0,1,0-9.266-19.587Z" transform="translate(-55.761 -83.794)" fill="#1c1919"/>
    <path id="Path_2" data-name="Path 2" d="M39.437,39.1A39.438,39.438,0,1,0,78.853,78.524V39.1ZM59.928,98.2l-.96.96a3.025,3.025,0,0,1-4.369,0l-8.007-8.02a3.078,3.078,0,0,1-.577-3.649l-4.272-4.32a14.666,14.666,0,1,1,2.3-2.3l4.272,4.32a3.2,3.2,0,0,1,3.649.577l8.018,8.018a3.114,3.114,0,0,1-.056,4.417Z" transform="translate(0 -28.109)" fill="#1c1919"/>
    <path id="Path_3" data-name="Path 3" d="M388.718,52.117c0-7.441-.288-13.826-.48-19.2h16.213l.863,8.209h.383a21.9,21.9,0,0,1,18.532-9.554c12.289,0,21.459,8.114,21.459,25.781V92.971H426.964V59.749c0-7.729-2.689-13.01-9.458-13.01a10.012,10.012,0,0,0-9.458,6.961,12.994,12.994,0,0,0-.768,4.657V92.922H388.654l.048-40.808ZM511.226,5.788V75.112c0,6.769.288,13.826.48,17.951H495.094l-.863-8.875h-.2a21.055,21.055,0,0,1-18.818,10.226c-14.21,0-25.684-12.146-25.684-30.86-.1-20.259,12.483-31.973,26.884-31.973,7.346,0,13.155,2.592,15.843,6.769h.288V5.788Zm-18.675,52.52a19.855,19.855,0,0,0-.288-3.36,11.21,11.21,0,0,0-10.995-9.169c-8.5,0-12.866,7.632-12.866,17.09,0,10.226,5.042,16.61,12.77,16.61a10.924,10.924,0,0,0,10.8-8.978,16.57,16.57,0,0,0,.48-4.32l.1-7.866ZM532.59,68.918c.577,7.729,8.209,11.475,17,11.475a51.269,51.269,0,0,0,16.61-2.5l2.5,12.626a58.291,58.291,0,0,1-21.747,3.746c-20.4,0-32.07-11.761-32.07-30.582,0-15.267,9.458-32.07,30.342-32.07,19.347,0,26.741,15.075,26.741,30a46.407,46.407,0,0,1-.577,7.346H532.588ZM554.575,56.1c0-4.56-2.017-12.146-10.609-12.146-7.826,0-11.093,7.152-11.521,12.146Zm20.977-23.2h16.136L592.264,44h.48a17.7,17.7,0,0,1,16.227-12.435,12.943,12.943,0,0,1,3.889.288v17.57a29.4,29.4,0,0,0-5.042-.48c-6.858,0-11.521,3.746-12.77,9.458a20.361,20.361,0,0,0-.383,4.226V92.971H575.941V52.645c0,.046-.194-14.6-.385-19.732Zm-212.963,0h18.724V92.971H362.588Zm-17.764-2.112c0-6.577,3.457-11.666,13.155-11.666a14.456,14.456,0,0,1,2.783-14.595c-1.057-.1-2.112-.1-3.169-.1-18.53,0-31.493,9.266-31.493,25.973v2.6h-7.826v13.73H326.1V92.971h18.818V46.642h9.938V32.913H344.829V30.8Z" transform="translate(-228.77 -3.197)" fill="#1c1919"/>
    <circle id="Ellipse_1" data-name="Ellipse 1" cx="10.995" cy="10.995" r="10.995" transform="translate(132.142 0)" fill="#1c1919"/>
  </g>
</svg>
